<svg width="21" height="18" viewBox="0 0 21 18" fill="none" xmlns="http://www.w3.org/2000/svg">
<path fill-rule="evenodd" clip-rule="evenodd" d="M10.5 0C4.70114 0 0 4.02955 0 9C0 13.9705 4.70114 18 10.5 18C16.2989 18 21 13.9705 21 9C21 4.02955 16.2989 0 10.5 0ZM14.0385 7.12391C14.2124 6.9696 14.3086 6.76292 14.3064 6.5484C14.3042 6.33387 14.2039 6.12866 14.0269 5.97697C13.8499 5.82527 13.6105 5.73922 13.3602 5.73736C13.1099 5.73549 12.8688 5.81796 12.6888 5.967L10.5 7.84309L8.31123 5.967C8.22317 5.88886 8.11784 5.82652 8.00139 5.78364C7.88493 5.74076 7.75967 5.71819 7.63293 5.71725C7.50618 5.71631 7.38049 5.73701 7.26318 5.77815C7.14587 5.81929 7.03929 5.88004 6.94967 5.95686C6.86004 6.03368 6.78917 6.12503 6.74117 6.22558C6.69317 6.32613 6.66902 6.43387 6.67012 6.54251C6.67123 6.65115 6.69756 6.75851 6.74758 6.85833C6.79761 6.95815 6.87033 7.04843 6.9615 7.12391L9.15027 9L6.9615 10.8761C6.87033 10.9516 6.79761 11.0418 6.74758 11.1417C6.69756 11.2415 6.67123 11.3489 6.67012 11.4575C6.66902 11.5661 6.69317 11.6739 6.74117 11.7744C6.78917 11.875 6.86004 11.9663 6.94967 12.0431C7.03929 12.12 7.14587 12.1807 7.26318 12.2219C7.38049 12.263 7.50618 12.2837 7.63293 12.2828C7.75967 12.2818 7.88493 12.2592 8.00139 12.2164C8.11784 12.1735 8.22317 12.1111 8.31123 12.033L10.5 10.1569L12.6888 12.033C12.8688 12.182 13.1099 12.2645 13.3602 12.2626C13.6105 12.2608 13.8499 12.1747 14.0269 12.023C14.2039 11.8713 14.3042 11.6661 14.3064 11.4516C14.3086 11.2371 14.2124 11.0304 14.0385 10.8761L11.8497 9L14.0385 7.12391Z" fill="#9F9F9F"/>
</svg>
